<?xml version="1.0" encoding="UTF-8" standalone="no"?>
<!DOCTYPE svg PUBLIC "-//W3C//DTD SVG 1.1//EN" "http://www.w3.org/Graphics/SVG/1.1/DTD/svg11.dtd">
<svg xmlns="http://www.w3.org/2000/svg" version="1.1" viewBox="0.00 0.00 1080.00 1080.00">
<path fill="#ffffff" d="
  M 0.00 564.37
  L 0.00 515.50
  C 1.59 498.09 14.08 485.77 32.01 485.50
  Q 36.10 485.44 49.51 485.53
  Q 50.00 485.53 50.00 486.02
  L 50.00 503.48
  Q 50.00 503.97 49.51 503.98
  Q 42.02 504.05 34.57 504.00
  Q 28.41 503.96 25.62 505.29
  C 19.91 508.01 18.54 512.92 18.53 519.31
  Q 18.47 539.19 18.50 559.06
  Q 18.51 566.21 20.01 569.18
  C 22.60 574.32 26.83 575.94 32.74 575.98
  Q 44.50 576.06 56.24 576.23
  Q 70.11 576.44 79.10 586.16
  Q 83.49 590.91 85.58 597.15
  Q 86.93 601.19 86.98 608.50
  Q 87.06 620.01 87.13 631.50
  Q 87.18 640.13 94.54 643.42
  C 97.80 644.88 101.38 644.63 105.07 644.66
  Q 124.37 644.79 143.67 644.62
  Q 149.23 644.57 152.08 643.18
  Q 159.18 639.70 159.16 630.51
  Q 159.08 597.03 159.14 563.57
  Q 159.15 558.74 157.84 556.17
  Q 155.71 551.98 151.34 550.25
  Q 148.75 549.23 143.02 549.24
  Q 122.22 549.28 101.41 549.22
  Q 94.62 549.20 90.74 548.00
  C 81.21 545.06 73.33 537.42 70.32 528.02
  Q 68.76 523.13 68.73 510.82
  Q 68.67 479.54 68.59 448.25
  C 68.54 430.54 83.01 417.02 100.51 416.92
  Q 128.50 416.77 145.50 416.92
  C 151.16 416.97 156.82 418.37 161.78 421.23
  Q 177.17 430.13 177.41 449.26
  Q 177.54 460.24 177.57 471.25
  C 177.60 479.81 182.70 485.23 191.07 485.34
  Q 203.03 485.49 214.99 485.60
  Q 225.48 485.70 233.81 491.93
  Q 241.86 497.94 244.66 507.48
  Q 246.09 512.39 246.12 525.67
  Q 246.16 540.01 246.11 554.36
  Q 246.08 567.87 244.45 572.99
  C 240.66 584.93 229.76 593.40 217.00 594.38
  Q 210.93 594.85 196.62 594.35
  Q 196.13 594.34 196.13 593.84
  L 196.13 576.51
  Q 196.13 576.01 196.63 576.01
  Q 205.37 576.00 214.14 575.96
  Q 218.23 575.94 220.62 574.70
  C 227.07 571.35 227.67 566.05 227.66 558.76
  Q 227.63 538.38 227.65 518.00
  Q 227.66 508.92 220.65 505.38
  Q 218.01 504.05 213.16 504.00
  Q 202.06 503.88 191.01 503.81
  C 182.66 503.75 174.93 500.96 168.90 495.12
  Q 159.49 486.02 159.26 471.87
  Q 159.09 460.82 159.22 449.75
  Q 159.33 440.38 152.04 436.81
  Q 149.41 435.52 144.69 435.52
  Q 123.59 435.50 102.49 435.49
  Q 97.03 435.48 94.26 436.83
  Q 87.03 440.36 87.05 450.26
  Q 87.12 482.73 87.22 515.22
  C 87.24 521.95 88.39 526.74 94.35 529.58
  Q 96.90 530.79 101.84 530.77
  Q 122.51 530.72 143.18 530.76
  Q 150.77 530.78 155.20 532.10
  C 168.84 536.16 177.61 547.61 177.61 562.14
  Q 177.61 596.84 177.54 631.49
  C 177.51 649.45 163.39 662.94 145.50 663.06
  Q 112.78 663.30 99.74 663.06
  C 85.58 662.80 73.22 653.30 69.68 639.71
  C 67.44 631.10 68.55 617.16 68.43 606.61
  Q 68.40 603.10 67.14 600.98
  C 64.16 595.92 59.89 594.56 53.83 594.53
  Q 42.51 594.48 31.26 594.47
  C 14.40 594.45 1.36 581.42 0.00 564.37
  Z"
/>
<path fill="#ffffff" d="
  M 398.41 519.38
  Q 398.14 516.27 397.15 519.23
  L 373.29 590.47
  Q 373.16 590.87 372.75 590.87
  L 360.56 590.87
  Q 360.10 590.87 359.95 590.43
  L 335.66 518.60
  Q 335.01 516.67 334.83 518.70
  L 328.53 590.26
  Q 328.47 590.87 327.86 590.87
  L 308.72 590.85
  Q 308.09 590.85 308.14 590.22
  L 316.26 492.93
  Q 316.30 492.42 316.82 492.42
  L 344.88 492.39
  Q 345.42 492.39 345.60 492.91
  L 366.14 553.29
  A 0.33 0.33 0.0 0 0 366.76 553.29
  L 387.60 492.86
  Q 387.76 492.40 388.25 492.40
  L 416.40 492.44
  Q 416.85 492.44 416.89 492.89
  L 424.89 590.21
  Q 424.95 590.87 424.29 590.87
  L 405.11 590.86
  Q 404.62 590.86 404.57 590.36
  L 398.41 519.38
  Z"
/>
<path fill="#ffffff" d="
  M 467.00 550.82
  L 467.00 572.43
  A 0.32 0.32 0.0 0 0 467.32 572.75
  L 503.18 572.75
  A 0.32 0.32 0.0 0 1 503.50 573.07
  L 503.50 590.56
  A 0.32 0.32 0.0 0 1 503.18 590.88
  L 446.78 590.87
  A 0.32 0.32 0.0 0 1 446.46 590.55
  L 446.41 492.69
  A 0.32 0.32 0.0 0 1 446.73 492.37
  L 503.13 492.46
  A 0.32 0.32 0.0 0 1 503.45 492.78
  L 503.51 509.95
  A 0.32 0.32 0.0 0 1 503.19 510.27
  L 467.32 510.37
  A 0.32 0.32 0.0 0 0 467.00 510.69
  L 467.00 532.43
  A 0.32 0.32 0.0 0 0 467.32 532.75
  L 498.93 532.75
  A 0.32 0.32 0.0 0 1 499.25 533.07
  L 499.25 550.18
  A 0.32 0.32 0.0 0 1 498.93 550.50
  L 467.32 550.50
  A 0.32 0.32 0.0 0 0 467.00 550.82
  Z"
/>
<path fill="#ffffff" d="
  M 526.04 590.83
  A 1.56 1.55 0.4 0 1 524.50 589.28
  L 524.50 493.02
  Q 524.50 492.54 524.98 492.53
  Q 544.18 492.08 563.22 492.55
  Q 588.61 493.18 600.09 512.63
  C 608.29 526.52 608.99 546.90 604.03 561.97
  C 597.49 581.84 580.66 590.68 560.76 590.84
  Q 543.91 590.98 526.04 590.83
  Z
  M 585.11 533.34
  Q 581.76 510.22 558.21 510.34
  Q 551.93 510.37 545.41 510.36
  A 0.41 0.41 0.0 0 0 545.00 510.77
  L 545.00 572.23
  Q 545.00 572.61 545.38 572.62
  C 560.62 573.19 576.41 574.04 582.53 559.02
  Q 587.18 547.61 585.11 533.34
  Z"
/>
<path fill="#ffffff" d="
  M 924.11 511.76
  C 910.15 520.19 905.93 538.64 910.48 553.32
  Q 913.62 563.45 920.94 569.21
  Q 928.88 575.47 940.00 575.76
  Q 960.56 576.30 969.86 558.38
  Q 970.10 557.91 970.59 558.10
  L 984.44 563.36
  Q 984.84 563.52 984.66 563.91
  C 976.23 582.92 957.36 592.15 937.01 590.63
  Q 914.17 588.92 901.92 571.99
  C 893.10 559.79 890.75 542.79 894.21 528.25
  C 899.22 507.22 915.66 494.29 936.60 492.56
  C 956.77 490.88 976.05 500.22 984.64 519.25
  Q 984.86 519.74 984.37 519.92
  L 970.50 525.23
  Q 970.03 525.41 969.81 524.96
  Q 961.58 508.49 943.21 507.44
  C 936.98 507.09 929.51 508.50 924.11 511.76
  Z"
/>
<path fill="#ffffff" d="
  M 674.75 508.32
  L 674.75 589.18
  A 0.32 0.32 0.0 0 1 674.43 589.50
  L 659.07 589.50
  A 0.32 0.32 0.0 0 1 658.75 589.18
  L 658.75 508.32
  A 0.32 0.32 0.0 0 0 658.43 508.00
  L 635.32 508.00
  A 0.32 0.32 0.0 0 1 635.00 507.68
  L 635.00 494.07
  A 0.32 0.32 0.0 0 1 635.32 493.75
  L 698.02 493.75
  A 0.32 0.32 0.0 0 1 698.34 494.07
  L 698.35 507.68
  A 0.32 0.32 0.0 0 1 698.03 508.00
  L 675.07 508.00
  A 0.32 0.32 0.0 0 0 674.75 508.32
  Z"
/>
<path fill="#ffffff" d="
  M 758.35 545.98
  A 0.44 0.44 0.0 0 0 758.07 546.65
  L 784.98 588.87
  Q 785.38 589.50 784.63 589.50
  L 766.91 589.49
  A 0.62 0.62 0.0 0 1 766.38 589.19
  L 741.97 547.19
  Q 741.71 546.74 741.19 546.74
  L 731.91 546.75
  Q 731.32 546.75 731.32 547.34
  L 731.32 588.96
  Q 731.32 589.50 730.79 589.50
  L 715.75 589.50
  Q 715.25 589.50 715.25 589.00
  L 715.25 494.26
  A 0.51 0.50 -90.0 0 1 715.75 493.75
  Q 732.01 493.72 748.50 493.84
  C 764.81 493.97 777.49 502.01 778.41 519.56
  C 779.12 532.89 771.92 543.28 758.35 545.98
  Z
  M 731.35 507.54
  L 731.35 534.66
  A 0.22 0.22 0.0 0 0 731.57 534.88
  L 748.61 534.88
  A 14.36 12.85 0.0 0 0 762.97 522.03
  L 762.97 520.17
  A 14.36 12.85 -0.0 0 0 748.61 507.32
  L 731.57 507.32
  A 0.22 0.22 0.0 0 0 731.35 507.54
  Z"
/>
<path fill="#ffffff" d="
  M 858.22 568.25
  L 816.76 568.25
  A 0.32 0.32 0.0 0 0 816.45 568.46
  L 809.09 589.29
  A 0.32 0.32 0.0 0 1 808.78 589.50
  L 792.94 589.50
  A 0.32 0.32 0.0 0 1 792.64 589.07
  L 827.66 493.96
  A 0.32 0.32 0.0 0 1 827.96 493.75
  L 847.03 493.75
  A 0.32 0.32 0.0 0 1 847.33 493.96
  L 882.35 589.07
  A 0.32 0.32 0.0 0 1 882.05 589.50
  L 866.30 589.50
  A 0.32 0.32 0.0 0 1 865.99 589.29
  L 858.53 568.46
  A 0.32 0.32 0.0 0 0 858.22 568.25
  Z
  M 853.46 553.95
  L 837.74 509.76
  Q 837.51 509.13 837.29 509.76
  L 821.63 553.92
  Q 821.43 554.50 822.04 554.50
  L 853.07 554.50
  Q 853.66 554.50 853.46 553.95
  Z"
/>
<path fill="#ffffff" d="
  M 1019.57 547.30
  L 1019.56 589.20
  A 0.30 0.30 0.0 0 1 1019.26 589.50
  L 1003.80 589.50
  A 0.30 0.30 0.0 0 1 1003.50 589.20
  L 1003.50 494.05
  A 0.30 0.30 0.0 0 1 1003.80 493.75
  L 1019.24 493.75
  A 0.30 0.30 0.0 0 1 1019.54 494.05
  L 1019.58 532.45
  A 0.30 0.30 0.0 0 0 1019.88 532.75
  L 1027.16 532.75
  A 0.30 0.30 0.0 0 0 1027.39 532.64
  L 1058.71 493.86
  A 0.30 0.30 0.0 0 1 1058.94 493.75
  L 1077.73 493.75
  A 0.30 0.30 0.0 0 1 1077.96 494.24
  L 1041.21 539.31
  A 0.30 0.30 0.0 0 0 1041.21 539.69
  L 1079.56 589.02
  A 0.30 0.30 0.0 0 1 1079.33 589.50
  L 1059.62 589.50
  A 0.30 0.30 0.0 0 1 1059.38 589.38
  L 1027.47 547.12
  A 0.30 0.30 0.0 0 0 1027.23 547.00
  L 1019.87 547.00
  A 0.30 0.30 0.0 0 0 1019.57 547.30
  Z"
/>
</svg>
