<svg id="Capa_1" data-name="Capa 1" xmlns="http://www.w3.org/2000/svg" viewBox="0 0 1080 248.06"><defs><style>.cls-1{fill:#2a5ce9;}</style></defs><title>LOGOAZUL</title><path class="cls-1" d="M0,94.11c3.2-5.36,5.85-11.16,9.72-16,5.35-6.65,13.25-8.7,21.52-9,6-.2,12,0,18.37,0v19H34.9c-10.79-.1-16.4,5.39-16,15.78.5,13.82.36,27.67,0,41.49-.22,9.22,5,14.47,14.52,14.7,8.66.2,17.33,0,26,0C73,160.13,87,174.25,87,187.83c0,8-.16,16,0,24,.27,11,4,16.75,16.35,16.39,14-.42,28-.09,42-.1,8.18,0,13.56-5.24,13.58-13.55q.12-34,0-68a12.49,12.49,0,0,0-12.49-12.46c-15.33-.07-30.67,0-46,0-14.75,0-27-9-30.94-23.12a43.51,43.51,0,0,1-1.43-11.18c-.13-22-.23-44,0-66C68.23,17.66,76.55,6.32,92,1.75A48.2,48.2,0,0,1,104.62.18c12.33-.2,24.67-.28,37,0C152.36.43,162.3,2.92,170,11.47A30.79,30.79,0,0,1,178,31c.4,8.15.08,16.33.09,24.49S183.43,69,191.58,69.15c9.92.21,19.91.08,29.76,1.11C233.86,71.55,245.51,84.51,246,97c.55,15.76,1.18,31.54.93,47.29-.28,17-8.39,28.63-23.07,33.4a26.07,26.07,0,0,1-7.21,1.32c-6.64.18-13.29.06-20.27.06v-19c5.21,0,10.32.08,15.44,0,8.87-.17,16-4.22,15.41-15.28-.77-13.63-.54-27.34-.07-41,.38-10.83-5.41-15.25-15.59-15.65-7.15-.29-14.34-.33-21.49,0-16.79.77-31.66-14.34-31.14-31a193.64,193.64,0,0,0-1-27.24c-.73-6.7-5.29-9.82-12-9.83-14.66,0-29.34.26-44-.09-13.12-.32-15.21,9.26-14.79,18.35.1,2.11.82,4.2.83,6.3.07,19.33,0,38.66,0,58,0,7.13,4.25,11.41,11.32,11.42,14.83,0,29.67,0,44.5,0,15.71,0,31.11,9.29,33.45,25.71a36.49,36.49,0,0,1,.75,5.31c.05,23.34,0,46.67.06,70,.07,17.08-12.78,31.29-29.55,31.93-15.08.58-30.21,1.33-45.28.89-17.76-.51-28.72-7-33.55-23-1.81-6-1.29-12.73-1.61-19.13-.22-4.49,0-9,0-13.5,0-8.11-5-13.19-13.14-13.23-7.33,0-14.67-.25-22,0-13.57.55-28.6-8.61-32-23-.09-.39-.6-.68-.92-1Z" transform="translate(0 0)"/><path class="cls-1" d="M1080,174.11c-5.66,0-11.35.31-17-.15a10.19,10.19,0,0,1-6.58-3.22c-9.7-12.52-19-25.39-28.7-37.87-1.25-1.6-4.54-1.61-7.63-2.58v43.53h-16.7V77.48h16.51v38.57c3.87-.38,6.87,1.18,9.93-2.93,8.72-11.68,18.3-22.73,27.63-34a5.37,5.37,0,0,1,3.35-2c5.79-.2,11.58-.09,18.48-.09-4.62,5.78-8.6,10.87-12.7,15.87-7.9,9.65-15.91,19.2-23.71,28.93-.59.73-.37,2.88.29,3.75q17.14,22.39,34.54,44.61a12.75,12.75,0,0,0,2.29,1.92Z" transform="translate(0 0)"/><path class="cls-1" d="M335.27,103.64c-2.2,24.59-4.27,47.81-6.36,71.23h-21.2c2.72-32.76,5.44-65.46,8.21-98.76,9.53,0,18.82-.12,28.09.17,1,0,2.46,2.2,3,3.64,6.5,18.75,12.86,37.55,19.52,57.1l21-60.73h29.79c2.68,32.82,5.36,65.51,8.07,98.54h-21.2c-2.07-23.45-4.13-46.67-6.31-71.33-8.4,24.68-16.35,48-24.33,71.45h-14Z" transform="translate(0 0)"/><path class="cls-1" d="M524.34,77.11c16.21,0,32.28-1.52,47.92.4,17.78,2.17,29.16,12.43,33.45,32.85,3.61,17.17,3,34.34-8.57,49.38-6.27,8.15-14.81,13.25-24.33,14-15.95,1.26-32.07.34-48.47.34Zm20.89,79c6.35,0,12.36.49,18.27-.13,7.55-.78,14-3.86,17.62-11.32,5.45-11.3,5.06-22.86,1.41-34.41-2.77-8.76-9.55-13.67-18.28-15-6.15-.9-12.53-.17-19-.17Z" transform="translate(0 0)"/><path class="cls-1" d="M503.69,95H467.36v21.06h32.4v18.89H467.3V156h36.34v18.81h-57.4V76.47h57.45Z" transform="translate(0 0)"/><path class="cls-1" d="M715.36,76.17c15.25,1,30.14,1.36,44.85,3.16,9.92,1.21,17.71,11.92,18.79,23,1.17,12-5.27,23.22-14.76,26.19A54,54,0,0,0,758.8,131c9,14.14,18,28.35,27.36,43.18h-6.32c-14,0-14,0-20.91-12.27-5.22-9.24-10.75-18.31-15.84-27.62-2.69-4.92-6.83-2.52-11-3.11v42.75H715.36Zm16.85,41.94h17.45c6.36,0,11.55-3.81,12.33-9,1.38-9.23-1.93-14.38-8.35-15.75-6.91-1.48-14.21-1.16-21.43-1.63Z" transform="translate(0 0)"/><path class="cls-1" d="M809.33,173.93H792c11.93-32.39,23.76-64.49,35.62-96.7H847.5c11.76,32,23.57,64.08,35.52,96.56H865.53c-2.1-5.72-4.47-11.41-6.24-17.3-.78-2.59-1.84-3.44-4.41-3.42-11.66.09-23.31-.06-35,.18-1.35,0-3.29,1.68-3.87,3.05C813.62,162,811.61,167.84,809.33,173.93ZM852.78,138c-5.06-14.28-10-28.31-15.35-43.26L822.16,138Z" transform="translate(0 0)"/><path class="cls-1" d="M985.16,104l-15.51,6.1c-3.83-8-9.86-13.79-18.63-16.51-19.46-6-38.93,5.43-41.14,26.49-1.37,13,1.1,24,11.37,32.9,9.14,7.94,28.55,8.48,38.19,1,3.51-2.73,6-6.7,9.22-9.91.92-.93,2.79-1.94,3.78-1.61,4.28,1.42,8.39,3.33,12.56,5.06-8.72,22.35-31.31,30.77-52.82,27.24-26.74-4.38-39.58-22.77-39.9-47.67-.32-24.56,11.4-42.62,33.64-49C951.43,70.88,977.59,83,985.16,104Z" transform="translate(0 0)"/><path class="cls-1" d="M675.16,173.88h-17V92.38H635.35v-15h63.38V91.85H675.16Z" transform="translate(0 0)"/></svg>